<svg width="16" height="16" viewBox="0 0 16 16" fill="none" xmlns="http://www.w3.org/2000/svg">
<path d="M1.17731 2.23486H5.56336L14.8228 4.61629V13.7462L1.17731 13.9884V2.23486Z" fill="white"/>
<rect x="6.05017" y="2.24219" width="3.55528" height="1.84133" fill="#4164FF"/>
<rect x="10.1669" y="2.24219" width="3.55528" height="1.84133" fill="#4DFF01"/>
<path d="M2.00597 1.50678C2.05311 1.50668 2.10024 1.50655 2.14738 1.5064C2.27653 1.50607 2.40568 1.50607 2.53483 1.50614C2.67427 1.50615 2.81371 1.50584 2.95315 1.50558C3.22621 1.50513 3.49927 1.50498 3.77234 1.50495C3.99436 1.50492 4.21639 1.50481 4.43841 1.50463C5.06825 1.50415 5.69809 1.50389 6.32793 1.50394C6.36187 1.50394 6.39581 1.50394 6.43078 1.50394C6.46476 1.50394 6.49874 1.50395 6.53375 1.50395C7.08432 1.50397 7.63489 1.50345 8.18546 1.50267C8.75113 1.50188 9.3168 1.5015 9.88247 1.50155C10.1999 1.50157 10.5173 1.50142 10.8348 1.50082C11.1051 1.50032 11.3754 1.50021 11.6457 1.50058C11.7835 1.50076 11.9213 1.50076 12.0591 1.50028C12.1855 1.49985 12.3119 1.49993 12.4382 1.50041C12.4837 1.50049 12.5292 1.50039 12.5747 1.50009C13.1206 1.49664 13.5808 1.63838 13.9789 1.97199C14.3131 2.27403 14.5278 2.64724 14.5239 3.07462C14.5238 3.10343 14.5238 3.10343 14.5237 3.13283C14.5233 3.1933 14.5225 3.25376 14.5217 3.31423C14.5214 3.3556 14.5211 3.39697 14.5209 3.43833C14.5202 3.53896 14.5191 3.63959 14.5178 3.74021C14.5358 3.7432 14.5537 3.74619 14.5722 3.74928C15.0336 3.83193 15.4065 4.08257 15.6843 4.413C15.9108 4.72781 15.9931 5.02347 15.9919 5.39015C15.9921 5.42308 15.9922 5.45601 15.9924 5.48994C15.9927 5.58088 15.9927 5.67181 15.9927 5.76275C15.9927 5.86101 15.993 5.95927 15.9933 6.05754C15.9938 6.24989 15.994 6.44224 15.994 6.63459C15.9941 6.79103 15.9942 6.94747 15.9944 7.10391C15.9949 7.54793 15.9952 7.99194 15.9952 8.43595C15.9952 8.47182 15.9952 8.47182 15.9952 8.50842C15.9952 8.53237 15.9952 8.55631 15.9952 8.58098C15.9951 8.96886 15.9957 9.35674 15.9966 9.74461C15.9975 10.1433 15.9979 10.5421 15.9979 10.9408C15.9979 11.1645 15.998 11.3881 15.9987 11.6118C15.9993 11.8023 15.9994 11.9928 15.999 12.1832C15.9988 12.2803 15.9988 12.3774 15.9993 12.4744C15.9999 12.5799 15.9995 12.6855 15.999 12.791C15.9994 12.8213 15.9997 12.8515 16 12.8827C15.9957 13.3164 15.801 13.6987 15.464 14.0109C15.1252 14.3021 14.7041 14.4925 14.2243 14.4929C14.2023 14.493 14.1803 14.4931 14.1577 14.4932C14.0845 14.4935 14.0112 14.4934 13.938 14.4932C13.8848 14.4933 13.8317 14.4935 13.7785 14.4936C13.6326 14.4939 13.4868 14.4939 13.3409 14.4939C13.1835 14.4939 13.026 14.4942 12.8686 14.4944C12.5603 14.4949 12.2519 14.495 11.9436 14.4951C11.6929 14.4951 11.4423 14.4952 11.1916 14.4954C10.4806 14.4959 9.76968 14.4961 9.05873 14.4961C9.02041 14.4961 8.98209 14.4961 8.94261 14.4961C8.90425 14.4961 8.86588 14.4961 8.82636 14.4961C8.2047 14.496 7.58304 14.4966 6.96138 14.4973C6.32283 14.4981 5.68429 14.4985 5.04574 14.4985C4.68734 14.4984 4.32894 14.4986 3.97054 14.4992C3.66536 14.4997 3.36019 14.4998 3.05502 14.4994C2.8994 14.4992 2.74379 14.4992 2.58817 14.4997C2.44551 14.5001 2.30287 14.5001 2.16022 14.4996C2.10881 14.4995 2.05739 14.4996 2.00597 14.4999C1.44313 14.5031 0.969576 14.3754 0.554976 14.028C0.136588 13.6498 0.0063445 13.2407 0.00769141 12.725C0.00757479 12.6827 0.00743118 12.6403 0.00726313 12.598C0.00688239 12.482 0.00688994 12.366 0.00696357 12.25C0.00697632 12.1247 0.00663175 11.9995 0.00633613 11.8743C0.00581845 11.629 0.00564665 11.3837 0.00561186 11.1385C0.0055822 10.9391 0.00545378 10.7397 0.00525614 10.5402C0.00470695 9.97456 0.00441917 9.40889 0.00446596 8.84321C0.00446845 8.81273 0.00447101 8.78224 0.00447357 8.75084C0.00447612 8.72032 0.00447856 8.6898 0.00448119 8.65835C0.00450653 8.16384 0.00390981 7.66934 0.00303026 7.17483C0.00213377 6.66678 0.00170369 6.15874 0.00175754 5.65069C0.00177823 5.36558 0.00160784 5.08047 0.000935713 4.79535C0.000367053 4.55258 0.000232543 4.30981 0.000655425 4.06703C0.000858718 3.94325 0.000864054 3.81948 0.000321602 3.6957C-0.000170689 3.5822 -7.79031e-05 3.4687 0.000464125 3.3552C0.000559493 3.31433 0.000448055 3.27346 9.86565e-05 3.23259C-0.00375202 2.74985 0.154911 2.34184 0.535606 1.98906C0.961725 1.62296 1.42438 1.50558 2.00597 1.50678ZM1.45062 2.77832C1.29317 2.95382 1.25965 3.11165 1.25949 3.33383C1.25939 3.36772 1.25929 3.40162 1.25918 3.43653C1.25923 3.47392 1.25928 3.5113 1.25933 3.54868C1.25927 3.58857 1.2592 3.62846 1.25911 3.66835C1.25892 3.77785 1.25893 3.88735 1.25896 3.99685C1.25897 4.11499 1.2588 4.23313 1.25865 4.35126C1.25839 4.58267 1.25831 4.81407 1.25829 5.04548C1.25827 5.23356 1.25821 5.42165 1.25811 5.60973C1.25784 6.14297 1.25769 6.67621 1.25772 7.20945C1.25772 7.23819 1.25772 7.26694 1.25772 7.29655C1.25772 7.32533 1.25772 7.35411 1.25772 7.38376C1.25774 7.85029 1.25744 8.31681 1.257 8.78334C1.25655 9.26234 1.25633 9.74135 1.25636 10.2204C1.25637 10.4893 1.25629 10.7582 1.25595 11.0272C1.25567 11.2561 1.2556 11.4851 1.25581 11.714C1.25591 11.8308 1.25591 11.9476 1.25564 12.0644C1.2554 12.1714 1.25544 12.2784 1.25571 12.3853C1.25576 12.424 1.25571 12.4626 1.25553 12.5013C1.25097 12.8876 1.25097 12.8876 1.45062 13.2217C1.65634 13.365 1.84049 13.39 2.10048 13.3901C2.12127 13.3902 2.14205 13.3902 2.16346 13.3903C2.23303 13.3904 2.3026 13.3903 2.37217 13.3902C2.42258 13.3903 2.47299 13.3904 2.5234 13.3904C2.66188 13.3906 2.80036 13.3906 2.93885 13.3906C3.08821 13.3906 3.23758 13.3907 3.38695 13.3908C3.67956 13.3911 3.97217 13.3911 4.26478 13.3912C4.5026 13.3912 4.74042 13.3912 4.97824 13.3913C5.65238 13.3916 6.32652 13.3917 7.00066 13.3917C7.05518 13.3917 7.05518 13.3917 7.1108 13.3917C7.14719 13.3917 7.18358 13.3917 7.22107 13.3917C7.81098 13.3917 8.40088 13.3919 8.99079 13.3923C9.59638 13.3927 10.202 13.3929 10.8076 13.3929C11.1476 13.3929 11.4877 13.3929 11.8277 13.3932C12.1172 13.3935 12.4067 13.3935 12.6961 13.3933C12.8439 13.3933 12.9916 13.3933 13.1393 13.3935C13.2745 13.3937 13.4097 13.3937 13.545 13.3934C13.5939 13.3934 13.6428 13.3934 13.6917 13.3936C14.1504 13.4013 14.1504 13.4013 14.549 13.2217C14.7416 13.007 14.7408 12.7992 14.7403 12.5348C14.7404 12.5043 14.7405 12.4738 14.7405 12.4423C14.7407 12.34 14.7407 12.2378 14.7407 12.1355C14.7408 12.0622 14.7409 11.9889 14.741 11.9155C14.7412 11.737 14.7413 11.5585 14.7414 11.38C14.7414 11.2349 14.7414 11.0898 14.7415 10.9447C14.7418 10.5331 14.7419 10.1216 14.7419 9.71C14.7419 9.68782 14.7419 9.66564 14.7419 9.64279C14.7419 9.62059 14.7419 9.59838 14.7419 9.5755C14.7419 9.21561 14.7422 8.85572 14.7426 8.49582C14.7431 8.12613 14.7433 7.75644 14.7433 7.38675C14.7433 7.17925 14.7434 6.97176 14.7437 6.76427C14.744 6.58762 14.744 6.41097 14.7438 6.23432C14.7437 6.14424 14.7438 6.05415 14.744 5.96407C14.7442 5.86631 14.7441 5.76856 14.7439 5.6708C14.7441 5.6283 14.7441 5.6283 14.7443 5.58494C14.7431 5.35821 14.7215 5.15694 14.549 4.97692C14.2995 4.8031 14.056 4.80801 13.7489 4.80872C13.6937 4.80869 13.6937 4.80869 13.6373 4.80865C13.5353 4.80862 13.4333 4.8087 13.3313 4.80884C13.2213 4.80896 13.1112 4.80892 13.0011 4.8089C12.8105 4.80888 12.6199 4.80897 12.4292 4.80912C12.1536 4.80935 11.878 4.80942 11.6024 4.80945C11.1552 4.80951 10.708 4.8097 10.2609 4.80996C9.82651 4.81021 9.39215 4.8104 8.95779 4.81052C8.93101 4.81053 8.90423 4.81053 8.87664 4.81054C8.74229 4.81058 8.60795 4.81061 8.4736 4.81065C7.35928 4.81093 6.24496 4.81141 5.13065 4.81203C5.13078 4.79186 5.13092 4.77169 5.13107 4.75091C5.13232 4.56008 5.13327 4.36926 5.13388 4.17843C5.1342 4.08034 5.13464 3.98226 5.13535 3.88417C5.13603 3.78937 5.1364 3.69458 5.13656 3.59977C5.13673 3.54631 5.13722 3.49285 5.13771 3.4394C5.13775 3.19285 5.13217 2.97519 4.94353 2.77832C4.72505 2.62611 4.52312 2.60929 4.24915 2.60944C4.22397 2.60934 4.19879 2.60925 4.17285 2.60916C4.09002 2.6089 4.00719 2.60884 3.92436 2.60881C3.86649 2.60872 3.80862 2.60863 3.75075 2.60853C3.62958 2.60837 3.50842 2.60832 3.38725 2.60834C3.23241 2.60834 3.07756 2.60796 2.92272 2.60749C2.80323 2.60718 2.68374 2.60713 2.56425 2.60714C2.50718 2.60711 2.45011 2.60699 2.39305 2.60678C2.31305 2.60651 2.23306 2.60659 2.15306 2.60675C2.12976 2.6066 2.10645 2.60644 2.08244 2.60628C1.84773 2.60751 1.635 2.64112 1.45062 2.77832ZM6.28455 2.61343C6.30514 2.69505 6.32572 2.77667 6.34693 2.86077C6.35722 3.14192 6.36751 3.42306 6.37811 3.71273C7.31465 3.71273 8.25118 3.71273 9.2161 3.71273C9.25108 3.21123 9.25108 3.21123 9.02898 2.77832C8.81666 2.6304 8.62731 2.6099 8.35927 2.61031C8.32547 2.6103 8.32547 2.6103 8.29098 2.6103C8.21707 2.61031 8.14317 2.61053 8.06926 2.61074C8.01778 2.6108 7.96631 2.61083 7.91484 2.61086C7.77979 2.61097 7.64475 2.61124 7.5097 2.61154C7.37173 2.61182 7.23375 2.61195 7.09577 2.61209C6.82536 2.61238 6.55496 2.61285 6.28455 2.61343ZM10.37 2.61343C10.3906 2.69505 10.4112 2.77667 10.4324 2.86077C10.4427 3.14192 10.453 3.42306 10.4636 3.71273C11.3898 3.71273 12.3161 3.71273 13.2704 3.71273C13.3053 3.21123 13.3053 3.21123 13.0832 2.77832C12.8719 2.63106 12.6833 2.6099 12.4164 2.61031C12.3942 2.6103 12.3719 2.6103 12.349 2.6103C12.2761 2.61031 12.2032 2.61053 12.1303 2.61074C12.0796 2.6108 12.0288 2.61083 11.978 2.61086C11.8448 2.61097 11.7116 2.61124 11.5784 2.61154C11.4423 2.61182 11.3062 2.61195 11.1701 2.61209C10.9034 2.61238 10.6367 2.61285 10.37 2.61343Z" fill="black"/>
</svg>
