<svg width="16" height="14" viewBox="0 0 16 14" fill="none" xmlns="http://www.w3.org/2000/svg">
<path d="M1.17731 0.79126H5.56336L14.8228 3.35587V13.188L1.17731 13.4489V0.79126Z" fill="white"/>
<rect x="6.05017" y="0.799316" width="3.55528" height="1.98297" fill="#4164FF"/>
<rect x="10.1669" y="0.799316" width="3.55528" height="1.98297" fill="#4DFF01"/>
<path d="M2.00597 0.00729928C2.05311 0.0071886 2.10024 0.00705237 2.14738 0.0068929C2.27653 0.00653164 2.40568 0.00653856 2.53483 0.00660844C2.67427 0.00662054 2.81371 0.00629363 2.95315 0.0060131C3.22621 0.00552185 3.49927 0.00535875 3.77234 0.00532573C3.99436 0.00529758 4.21639 0.00517584 4.43841 0.00498829C5.06825 0.00446711 5.69809 0.00419394 6.32793 0.00423834C6.36187 0.00424071 6.39581 0.00424307 6.43078 0.00424551C6.46476 0.00424793 6.49874 0.00425035 6.53375 0.00425284C7.08432 0.0042769 7.63489 0.00371059 8.18546 0.00287588C8.75113 0.00202506 9.3168 0.00161686 9.88247 0.00166797C10.1999 0.0016876 10.5173 0.00152584 10.8348 0.000887923C11.1051 0.000348202 11.3754 0.000220835 11.6457 0.000622112C11.7835 0.000815011 11.9213 0.00082013 12.0591 0.000305236C12.1855 -0.000162076 12.3119 -7.38289e-05 12.4382 0.000440441C12.4837 0.000530919 12.5292 0.00042525 12.5747 9.3565e-05C13.1206 -0.00361942 13.5808 0.149023 13.9789 0.508297C14.3131 0.833569 14.5278 1.23549 14.5239 1.69574C14.5238 1.72677 14.5238 1.72677 14.5237 1.75843C14.5233 1.82355 14.5225 1.88867 14.5217 1.95379C14.5214 1.99834 14.5211 2.04289 14.5209 2.08744C14.5202 2.19581 14.5191 2.30417 14.5178 2.41253C14.5358 2.41576 14.5537 2.41898 14.5722 2.4223C15.0336 2.51131 15.4065 2.78123 15.6843 3.13707C15.9108 3.4761 15.9931 3.79451 15.9919 4.18939C15.9921 4.22485 15.9922 4.26032 15.9924 4.29686C15.9927 4.39479 15.9927 4.49272 15.9927 4.59065C15.9927 4.69647 15.993 4.80229 15.9933 4.90812C15.9938 5.11526 15.994 5.32241 15.994 5.52956C15.9941 5.69803 15.9942 5.86651 15.9944 6.03498C15.9949 6.51315 15.9952 6.99131 15.9952 7.46948C15.9952 7.50811 15.9952 7.50811 15.9952 7.54753C15.9952 7.57332 15.9952 7.5991 15.9952 7.62567C15.9951 8.04339 15.9957 8.4611 15.9966 8.87882C15.9975 9.30822 15.9979 9.73762 15.9979 10.167C15.9979 10.4079 15.998 10.6488 15.9987 10.8897C15.9993 11.0948 15.9994 11.2999 15.999 11.505C15.9988 11.6096 15.9988 11.7141 15.9993 11.8186C15.9999 11.9323 15.9995 12.0459 15.999 12.1595C15.9994 12.1921 15.9997 12.2247 16 12.2583C15.9957 12.7253 15.801 13.137 15.464 13.4733C15.1252 13.7869 14.7041 13.9919 14.2243 13.9924C14.2023 13.9925 14.1803 13.9926 14.1577 13.9927C14.0845 13.993 14.0112 13.9928 13.938 13.9927C13.8848 13.9928 13.8317 13.9929 13.7785 13.9931C13.6326 13.9935 13.4868 13.9935 13.3409 13.9934C13.1835 13.9934 13.026 13.9937 12.8686 13.994C12.5603 13.9945 12.2519 13.9946 11.9436 13.9947C11.6929 13.9947 11.4423 13.9948 11.1916 13.995C10.4806 13.9955 9.76968 13.9958 9.05873 13.9958C9.02041 13.9958 8.98209 13.9958 8.94261 13.9958C8.90425 13.9958 8.86588 13.9957 8.82636 13.9957C8.2047 13.9957 7.58304 13.9963 6.96138 13.9971C6.32283 13.998 5.68429 13.9984 5.04574 13.9983C4.68734 13.9983 4.32894 13.9985 3.97054 13.9991C3.66536 13.9997 3.36019 13.9998 3.05502 13.9994C2.8994 13.9992 2.74379 13.9992 2.58817 13.9997C2.44551 14.0002 2.30287 14.0001 2.16022 13.9996C2.10881 13.9995 2.05739 13.9996 2.00597 13.9999C1.44313 14.0033 0.969576 13.8659 0.554976 13.4917C0.136588 13.0844 0.0063445 12.6438 0.00769141 12.0884C0.00757479 12.0429 0.00743118 11.9973 0.00726313 11.9517C0.00688239 11.8268 0.00688994 11.7018 0.00696357 11.5769C0.00697632 11.442 0.00663175 11.3072 0.00633613 11.1723C0.00581845 10.9082 0.00564665 10.644 0.00561186 10.3799C0.0055822 10.1652 0.00545378 9.9504 0.00525614 9.73564C0.00470695 9.12645 0.00441917 8.51726 0.00446596 7.90807C0.00446845 7.87525 0.00447101 7.84242 0.00447357 7.80859C0.00447612 7.77573 0.00447856 7.74286 0.00448119 7.70899C0.00450653 7.17644 0.00390981 6.6439 0.00303026 6.11135C0.00213377 5.56423 0.00170369 5.0171 0.00175754 4.46997C0.00177823 4.16293 0.00160784 3.85589 0.000935713 3.54884C0.000367053 3.28739 0.000232543 3.02595 0.000655425 2.76449C0.000858718 2.63119 0.000864054 2.4979 0.000321602 2.3646C-0.000170689 2.24237 -7.79031e-05 2.12014 0.000464125 1.99791C0.000559493 1.95389 0.000448055 1.90988 9.86565e-05 1.86586C-0.00375202 1.34599 0.154911 0.906599 0.535606 0.52668C0.961725 0.132414 1.42438 0.00600415 2.00597 0.00729928ZM1.45062 1.37666C1.29317 1.56565 1.25965 1.73562 1.25949 1.9749C1.25939 2.0114 1.25929 2.04789 1.25918 2.0855C1.25923 2.12576 1.25928 2.16602 1.25933 2.20628C1.25927 2.24923 1.2592 2.29219 1.25911 2.33515C1.25892 2.45307 1.25893 2.57099 1.25896 2.68891C1.25897 2.81614 1.2588 2.94337 1.25865 3.07059C1.25839 3.3198 1.25831 3.569 1.25829 3.81821C1.25827 4.02076 1.25821 4.22331 1.25811 4.42586C1.25784 5.00012 1.25769 5.57438 1.25772 6.14864C1.25772 6.17959 1.25772 6.21055 1.25772 6.24244C1.25772 6.27343 1.25772 6.30443 1.25772 6.33636C1.25774 6.83877 1.25744 7.34118 1.257 7.84359C1.25655 8.35945 1.25633 8.8753 1.25636 9.39116C1.25637 9.68078 1.25629 9.9704 1.25595 10.26C1.25567 10.5066 1.2556 10.7531 1.25581 10.9997C1.25591 11.1255 1.25591 11.2513 1.25564 11.3771C1.2554 11.4923 1.25544 11.6075 1.25571 11.7227C1.25576 11.7643 1.25571 11.8059 1.25553 11.8475C1.25097 12.2636 1.25097 12.2636 1.45062 12.6233C1.65634 12.7777 1.84049 12.8046 2.10048 12.8047C2.12127 12.8048 2.14205 12.8048 2.16346 12.8049C2.23303 12.805 2.3026 12.805 2.37217 12.8049C2.42258 12.8049 2.47299 12.805 2.5234 12.8051C2.66188 12.8053 2.80036 12.8053 2.93885 12.8052C3.08821 12.8052 3.23758 12.8054 3.38695 12.8055C3.67956 12.8058 3.97217 12.8059 4.26478 12.8059C4.5026 12.8059 4.74042 12.8059 4.97824 12.806C5.65238 12.8063 6.32652 12.8064 7.00066 12.8064C7.05518 12.8064 7.05518 12.8064 7.1108 12.8064C7.14719 12.8064 7.18358 12.8064 7.22107 12.8064C7.81098 12.8064 8.40088 12.8067 8.99079 12.8071C9.59638 12.8075 10.202 12.8077 10.8076 12.8077C11.1476 12.8077 11.4877 12.8078 11.8277 12.8081C12.1172 12.8084 12.4067 12.8084 12.6961 12.8082C12.8439 12.8081 12.9916 12.8081 13.1393 12.8084C13.2745 12.8086 13.4097 12.8086 13.545 12.8083C13.5939 12.8083 13.6428 12.8083 13.6917 12.8085C14.1504 12.8168 14.1504 12.8168 14.549 12.6233C14.7416 12.3922 14.7408 12.1684 14.7403 11.8836C14.7404 11.8508 14.7405 11.8179 14.7405 11.784C14.7407 11.6739 14.7407 11.5637 14.7407 11.4536C14.7408 11.3746 14.7409 11.2957 14.741 11.2167C14.7412 11.0245 14.7413 10.8323 14.7414 10.6401C14.7414 10.4838 14.7414 10.3275 14.7415 10.1712C14.7418 9.728 14.7419 9.28477 14.7419 8.84153C14.7419 8.81765 14.7419 8.79377 14.7419 8.76916C14.7419 8.74525 14.7419 8.72133 14.7419 8.6967C14.7419 8.30912 14.7422 7.92154 14.7426 7.53396C14.7431 7.13583 14.7433 6.7377 14.7433 6.33957C14.7433 6.11612 14.7434 5.89267 14.7437 5.66921C14.744 5.47898 14.744 5.28874 14.7438 5.0985C14.7437 5.00149 14.7438 4.90447 14.744 4.80746C14.7442 4.70218 14.7441 4.59691 14.7439 4.49163C14.7441 4.44586 14.7441 4.44586 14.7443 4.39917C14.7431 4.155 14.7215 3.93825 14.549 3.74438C14.2995 3.55718 14.056 3.56247 13.7489 3.56324C13.6937 3.5632 13.6937 3.5632 13.6373 3.56316C13.5353 3.56312 13.4333 3.56322 13.3313 3.56337C13.2213 3.56349 13.1112 3.56345 13.0011 3.56343C12.8105 3.56341 12.6199 3.5635 12.4292 3.56367C12.1536 3.56391 11.878 3.56399 11.6024 3.56403C11.1552 3.56409 10.708 3.56429 10.2609 3.56457C9.82651 3.56484 9.39215 3.56505 8.95779 3.56517C8.93101 3.56518 8.90423 3.56519 8.87664 3.5652C8.74229 3.56524 8.60795 3.56527 8.4736 3.56531C7.35928 3.56562 6.24496 3.56614 5.13065 3.5668C5.13078 3.54508 5.13092 3.52336 5.13107 3.50098C5.13232 3.29547 5.13327 3.08997 5.13388 2.88446C5.1342 2.77883 5.13464 2.6732 5.13535 2.56757C5.13603 2.46548 5.1364 2.36339 5.13656 2.26129C5.13673 2.20372 5.13722 2.14615 5.13771 2.08858C5.13775 1.82306 5.13217 1.58866 4.94353 1.37666C4.72505 1.21273 4.52312 1.19462 4.24915 1.19478C4.22397 1.19468 4.19879 1.19458 4.17285 1.19448C4.09002 1.1942 4.00719 1.19414 3.92436 1.1941C3.86649 1.19401 3.80862 1.19391 3.75075 1.19381C3.62958 1.19363 3.50842 1.19357 3.38725 1.19359C3.23241 1.19359 3.07756 1.19319 2.92272 1.19268C2.80323 1.19235 2.68374 1.19229 2.56425 1.19231C2.50718 1.19227 2.45011 1.19214 2.39305 1.19191C2.31305 1.19162 2.23306 1.19171 2.15306 1.19189C2.12976 1.19172 2.10645 1.19155 2.08244 1.19138C1.84773 1.1927 1.635 1.2289 1.45062 1.37666ZM6.28455 1.19908C6.30514 1.28698 6.32572 1.37488 6.34693 1.46545C6.35722 1.76822 6.36751 2.07099 6.37811 2.38294C7.31465 2.38294 8.25118 2.38294 9.2161 2.38294C9.25108 1.84286 9.25108 1.84286 9.02898 1.37666C8.81666 1.21736 8.62731 1.19528 8.35927 1.19572C8.32547 1.19571 8.32547 1.19571 8.29098 1.1957C8.21707 1.19572 8.14317 1.19595 8.06926 1.19619C8.01778 1.19624 7.96631 1.19628 7.91484 1.19631C7.77979 1.19643 7.64475 1.19672 7.5097 1.19704C7.37173 1.19735 7.23375 1.19748 7.09577 1.19763C6.82536 1.19795 6.55496 1.19845 6.28455 1.19908ZM10.37 1.19908C10.3906 1.28698 10.4112 1.37488 10.4324 1.46545C10.4427 1.76822 10.453 2.07099 10.4636 2.38294C11.3898 2.38294 12.3161 2.38294 13.2704 2.38294C13.3053 1.84286 13.3053 1.84286 13.0832 1.37666C12.8719 1.21806 12.6833 1.19528 12.4164 1.19572C12.3942 1.19571 12.3719 1.19571 12.349 1.1957C12.2761 1.19572 12.2032 1.19595 12.1303 1.19619C12.0796 1.19624 12.0288 1.19628 11.978 1.19631C11.8448 1.19643 11.7116 1.19672 11.5784 1.19704C11.4423 1.19735 11.3062 1.19748 11.1701 1.19763C10.9034 1.19795 10.6367 1.19845 10.37 1.19908Z" fill="black"/>
</svg>
